<svg width="32" height="32" viewBox="0 0 32 32" fill="none" xmlns="http://www.w3.org/2000/svg">
<rect width="32" height="32" fill="white"/>
<g clip-path="url(#clip0_9157_104)">
<path d="M15.5 11.7793C13.125 11.7793 11.2324 13.709 11.2324 16.0469C11.2324 18.4219 13.125 20.3145 15.5 20.3145C17.8379 20.3145 19.7676 18.4219 19.7676 16.0469C19.7676 13.709 17.8379 11.7793 15.5 11.7793ZM15.5 18.8301C13.9785 18.8301 12.7168 17.6055 12.7168 16.0469C12.7168 14.5254 13.9414 13.3008 15.5 13.3008C17.0215 13.3008 18.2461 14.5254 18.2461 16.0469C18.2461 17.6055 17.0215 18.8301 15.5 18.8301ZM20.918 11.6309C20.918 11.0742 20.4727 10.6289 19.916 10.6289C19.3594 10.6289 18.9141 11.0742 18.9141 11.6309C18.9141 12.1875 19.3594 12.6328 19.916 12.6328C20.4727 12.6328 20.918 12.1875 20.918 11.6309ZM23.7383 12.6328C23.6641 11.2969 23.3672 10.1094 22.4023 9.14454C21.4375 8.17969 20.25 7.88281 18.9141 7.80859C17.541 7.73437 13.4219 7.73437 12.0488 7.80859C10.7129 7.88281 9.5625 8.17969 8.56055 9.14454C7.5957 10.1094 7.29883 11.2969 7.22461 12.6328C7.15039 14.0059 7.15039 18.125 7.22461 19.4981C7.29883 20.834 7.5957 21.9844 8.56055 22.9864C9.5625 23.9512 10.7129 24.2481 12.0488 24.3223C13.4219 24.3965 17.541 24.3965 18.9141 24.3223C20.25 24.2481 21.4375 23.9512 22.4023 22.9864C23.3672 21.9844 23.6641 20.834 23.7383 19.4981C23.8125 18.125 23.8125 14.0059 23.7383 12.6328ZM21.957 20.9454C21.6973 21.6875 21.1035 22.2442 20.3984 22.5411C19.2852 22.9864 16.6875 22.875 15.5 22.875C14.2754 22.875 11.6777 22.9864 10.6016 22.5411C9.85938 22.2442 9.30273 21.6875 9.00586 20.9454C8.56055 19.8692 8.67188 17.2715 8.67188 16.0469C8.67188 14.8594 8.56055 12.2617 9.00586 11.1484C9.30273 10.4434 9.85938 9.88672 10.6016 9.58985C11.6777 9.14454 14.2754 9.25586 15.5 9.25586C16.6875 9.25586 19.2852 9.14454 20.3984 9.58985C21.1035 9.84961 21.6602 10.4434 21.957 11.1484C22.4023 12.2617 22.291 14.8594 22.291 16.0469C22.291 17.2715 22.4023 19.8692 21.957 20.9454Z" fill="#292F36"/>
</g>
<defs>
<clipPath id="clip0_9157_104">
<rect width="17" height="18" fill="white" transform="translate(7 7)"/>
</clipPath>
</defs>
</svg>
