<svg width="32" height="32" viewBox="0 0 32 32" fill="none" xmlns="http://www.w3.org/2000/svg">
<rect width="32" height="32" fill="white"/>
<g clip-path="url(#clip0_9157_101)">
<path d="M11.6406 24.1719V13.6602H8.37109V24.1719H11.6406ZM9.98828 12.2539C11.043 12.2539 11.8867 11.375 11.8867 10.3203C11.8867 9.30079 11.043 8.45703 9.98828 8.45703C8.96875 8.45703 8.125 9.30079 8.125 10.3203C8.125 11.375 8.96875 12.2539 9.98828 12.2539ZM23.8398 24.1719H23.875V18.4063C23.875 15.5937 23.2422 13.4141 19.9375 13.4141C18.3555 13.4141 17.3008 14.293 16.8438 15.1016H16.8086V13.6602H13.6797V24.1719H16.9492V18.9688C16.9492 17.5977 17.1953 16.2969 18.8828 16.2969C20.5703 16.2969 20.6055 17.8437 20.6055 19.0743V24.1719H23.8398Z" fill="#292F36"/>
</g>
<defs>
<clipPath id="clip0_9157_101">
<rect width="16" height="17" fill="white" transform="translate(8 8)"/>
</clipPath>
</defs>
</svg>
